<svg width="113" height="40" viewBox="0 0 113 40" fill="none" xmlns="http://www.w3.org/2000/svg">
<g clip-path="url(#clip0)">
<path d="M10.6488 13.2778C11.6265 12.7156 12.8312 12.7156 13.8089 13.2778L22.7755 18.4327C23.7532 18.9949 24.3556 20.0337 24.3556 21.1579V31.4677C24.3556 32.5921 23.7532 33.631 22.7755 34.1932L13.8089 39.348C12.8312 39.9102 11.6265 39.9102 10.6488 39.348L1.68221 34.1932C0.704462 33.631 0.102142 32.5921 0.102142 31.4677V21.1579C0.102142 20.0337 0.704462 18.9949 1.68221 18.4327L10.6488 13.2778Z" fill="#FFE600"/>
<path d="M29.963 26.6259C29.695 26.6259 29.4759 26.5403 29.3056 26.3692C29.135 26.1982 29.0498 25.9782 29.0498 25.7094V1.88066C29.0498 1.61183 29.135 1.39187 29.3056 1.22079C29.5001 1.04971 29.7195 0.964172 29.963 0.964172H34.6746C34.9423 0.964172 35.1616 1.04971 35.332 1.22079C35.5268 1.39187 35.6242 1.61183 35.6242 1.88066V10.7156H44.6093V1.88066C44.6093 1.61183 44.6944 1.39187 44.8648 1.22079C45.0354 1.04971 45.2544 0.964172 45.5225 0.964172H50.234C50.5018 0.964172 50.7211 1.04971 50.8914 1.22079C51.0618 1.39187 51.1472 1.61183 51.1472 1.88066V25.7094C51.1472 25.9782 51.0618 26.1982 50.8914 26.3692C50.7211 26.5403 50.5018 26.6259 50.234 26.6259H45.5225C45.2544 26.6259 45.0354 26.5403 44.8648 26.3692C44.6944 26.1982 44.6093 25.9782 44.6093 25.7094V16.5811H35.6242V25.7094C35.6242 25.9782 35.5268 26.1982 35.332 26.3692C35.1616 26.5403 34.9423 26.6259 34.6746 26.6259H29.963Z" fill="black"/>
<path d="M57.178 26.6259C56.9344 26.6259 56.7154 26.5403 56.5205 26.3692C56.3499 26.1737 56.2648 25.9538 56.2648 25.7094V1.88066C56.2648 1.61183 56.3499 1.39187 56.5205 1.22079C56.7154 1.04971 56.9344 0.964172 57.178 0.964172H62.0721C62.3401 0.964172 62.5592 1.04971 62.7295 1.22079C62.9244 1.39187 63.0218 1.61183 63.0218 1.88066V25.7094C63.0218 25.9782 62.9244 26.1982 62.7295 26.3692C62.5592 26.5403 62.3401 26.6259 62.0721 26.6259H57.178Z" fill="black"/>
<path d="M75.4117 26.6259C74.6324 26.6259 74.1334 26.2593 73.914 25.5261L66.4632 2.06396L66.3902 1.73403C66.3902 1.53851 66.4632 1.36743 66.6093 1.22079C66.7796 1.04971 66.9744 0.964172 67.1938 0.964172H71.7227C72.0637 0.964172 72.3437 1.06193 72.5627 1.25745C72.8063 1.45297 72.9646 1.67293 73.0376 1.91732L78.224 18.854L83.3739 1.91732C83.4471 1.67293 83.5932 1.45297 83.8123 1.25745C84.0558 1.06193 84.348 0.964172 84.689 0.964172H89.2544C89.4493 0.964172 89.6196 1.04971 89.7657 1.22079C89.9363 1.36743 90.0215 1.53851 90.0215 1.73403L89.9483 2.06396L82.4974 25.5261C82.2784 26.2593 81.7791 26.6259 81 26.6259H75.4117Z" fill="black"/>
<path d="M94.3445 26.6259C94.101 26.6259 93.8819 26.5403 93.6871 26.3692C93.5165 26.1737 93.4313 25.9538 93.4313 25.7094V1.88066C93.4313 1.61183 93.5165 1.39187 93.6871 1.22079C93.8819 1.04971 94.101 0.964172 94.3445 0.964172H111.401C111.669 0.964172 111.888 1.04971 112.059 1.22079C112.229 1.39187 112.315 1.61183 112.315 1.88066V5.32667C112.315 5.57105 112.229 5.79102 112.059 5.98653C111.888 6.15761 111.669 6.24316 111.401 6.24316H99.7502V11.1922H110.598C110.866 11.1922 111.085 11.2899 111.255 11.4855C111.426 11.6565 111.511 11.8765 111.511 12.1453V15.3347C111.511 15.5791 111.426 15.7991 111.255 15.9946C111.085 16.1657 110.866 16.2512 110.598 16.2512H99.7502V21.3469H111.694C111.961 21.3469 112.181 21.4324 112.351 21.6035C112.522 21.7746 112.607 21.9945 112.607 22.2634V25.7094C112.607 25.9538 112.522 26.1737 112.351 26.3692C112.181 26.5403 111.961 26.6259 111.694 26.6259H94.3445Z" fill="black"/>
<path d="M2.93949 8.63143C2.85655 8.63143 2.78189 8.60275 2.71551 8.54536C2.65744 8.47981 2.6284 8.40604 2.6284 8.32408V1.95559H0.413366C0.330405 1.95559 0.255741 1.9269 0.189373 1.86953C0.131301 1.80396 0.102264 1.73019 0.102264 1.64823V0.332735C0.102264 0.242576 0.131301 0.16881 0.189373 0.111436C0.255741 0.0540623 0.330405 0.0253754 0.413366 0.0253754H7.10825C7.19952 0.0253754 7.27418 0.0540623 7.33225 0.111436C7.39032 0.16881 7.41935 0.242576 7.41935 0.332735V1.64823C7.41935 1.73839 7.39032 1.81216 7.33225 1.86953C7.27418 1.9269 7.19952 1.95559 7.10825 1.95559H4.89321V8.32408C4.89321 8.40604 4.86417 8.47981 4.8061 8.54536C4.74803 8.60275 4.67337 8.63143 4.5821 8.63143H2.93949Z" fill="black"/>
<path d="M8.8614 8.63143C8.77016 8.63143 8.69549 8.60275 8.63742 8.54536C8.57933 8.488 8.55029 8.41423 8.55029 8.32408V0.332735C8.55029 0.242576 8.57933 0.16881 8.63742 0.111436C8.70379 0.0540623 8.77846 0.0253754 8.8614 0.0253754H10.4667C10.5579 0.0253754 10.6326 0.0540623 10.6907 0.111436C10.757 0.16881 10.7902 0.242576 10.7902 0.332735V3.29567H13.8515V0.332735C13.8515 0.242576 13.8805 0.16881 13.9386 0.111436C13.9966 0.0540623 14.0713 0.0253754 14.1626 0.0253754H15.7678C15.8591 0.0253754 15.9337 0.0540623 15.9918 0.111436C16.0499 0.16881 16.0789 0.242576 16.0789 0.332735V8.32408C16.0789 8.41423 16.0499 8.488 15.9918 8.54536C15.9337 8.60275 15.8591 8.63143 15.7678 8.63143H14.1626C14.0713 8.63143 13.9966 8.60275 13.9386 8.54536C13.8805 8.488 13.8515 8.41423 13.8515 8.32408V5.26277H10.7902V8.32408C10.7902 8.41423 10.757 8.488 10.6907 8.54536C10.6326 8.60275 10.5579 8.63143 10.4667 8.63143H8.8614Z" fill="black"/>
<path d="M18.1337 8.63143C18.0507 8.63143 17.976 8.60275 17.9097 8.54536C17.8516 8.47981 17.8226 8.40604 17.8226 8.32408V0.332735C17.8226 0.242576 17.8516 0.16881 17.9097 0.111436C17.976 0.0540623 18.0507 0.0253754 18.1337 0.0253754H23.945C24.0363 0.0253754 24.111 0.0540623 24.169 0.111436C24.2271 0.16881 24.2561 0.242576 24.2561 0.332735V1.4884C24.2561 1.57037 24.2271 1.64413 24.169 1.7097C24.111 1.76708 24.0363 1.79576 23.945 1.79576H19.9754V3.45551H23.6713C23.7625 3.45551 23.8372 3.4883 23.8953 3.55385C23.9533 3.61124 23.9824 3.68501 23.9824 3.77516V4.84476C23.9824 4.92672 23.9533 5.00049 23.8953 5.06607C23.8372 5.12343 23.7625 5.15213 23.6713 5.15213H19.9754V6.86103H24.0446C24.1358 6.86103 24.2105 6.88971 24.2686 6.9471C24.3267 7.00446 24.3557 7.07823 24.3557 7.16841V8.32408C24.3557 8.40604 24.3267 8.47981 24.2686 8.54536C24.2105 8.60275 24.1358 8.63143 24.0446 8.63143H18.1337Z" fill="black"/>
<path d="M29.0465 39.6501C28.9641 39.6501 28.8895 39.6223 28.8237 39.5665C28.7657 39.5029 28.7369 39.431 28.7369 39.3513V31.582C28.7369 31.4944 28.7657 31.4226 28.8237 31.3668C28.8895 31.311 28.9641 31.2833 29.0465 31.2833H30.3848C30.5829 31.2833 30.7276 31.3709 30.8182 31.5461L32.9989 35.3113L35.1796 31.5461C35.2705 31.3709 35.4152 31.2833 35.6133 31.2833H36.9391C37.0299 31.2833 37.1042 31.311 37.1622 31.3668C37.2283 31.4226 37.2612 31.4944 37.2612 31.582V39.3513C37.2612 39.4389 37.2283 39.5107 37.1622 39.5665C37.1042 39.6223 37.0299 39.6501 36.9391 39.6501H35.4648C35.3739 39.6501 35.2952 39.6223 35.2294 39.5665C35.1714 39.5107 35.1426 39.4389 35.1426 39.3513V34.8691L33.7548 37.3671C33.6474 37.5505 33.5029 37.6422 33.3211 37.6422H32.677C32.5695 37.6422 32.4827 37.6182 32.4166 37.5703C32.3505 37.5224 32.2928 37.4547 32.2433 37.3671L30.8433 34.8691V39.3513C30.8433 39.431 30.8142 39.5029 30.7565 39.5665C30.6985 39.6223 30.6242 39.6501 30.5333 39.6501H29.0465Z" fill="black"/>
<path d="M38.5018 39.6501C38.4357 39.6501 38.3739 39.6261 38.3159 39.5785C38.2664 39.5227 38.2416 39.4629 38.2416 39.3992C38.2416 39.3513 38.2457 39.3154 38.2539 39.2917L41.1657 31.618C41.1905 31.5222 41.2441 31.4424 41.3268 31.3788C41.4093 31.3151 41.5167 31.2833 41.649 31.2833H43.4827C43.6147 31.2833 43.7222 31.3151 43.8049 31.3788C43.8874 31.4424 43.941 31.5222 43.966 31.618L46.865 39.2917L46.8901 39.3992C46.8901 39.4629 46.861 39.5227 46.8033 39.5785C46.7537 39.6261 46.6917 39.6501 46.6174 39.6501H45.0933C44.8952 39.6501 44.763 39.5665 44.6969 39.3992L44.2136 38.1799H40.9056L40.4346 39.3992C40.3687 39.5665 40.2324 39.6501 40.0259 39.6501H38.5018ZM43.7181 36.4588L42.5657 33.3031L41.4136 36.4588H43.7181Z" fill="black"/>
<path d="M48.1763 39.6501C48.0936 39.6501 48.0193 39.6223 47.9532 39.5665C47.8955 39.5029 47.8667 39.431 47.8667 39.3513V31.582C47.8667 31.4944 47.8955 31.4226 47.9532 31.3668C48.0193 31.311 48.0936 31.2833 48.1763 31.2833H49.7374C49.8283 31.2833 49.9026 31.311 49.9605 31.3668C50.0182 31.4226 50.0471 31.4944 50.0471 31.582V34.2356L52.3393 31.5102C52.4386 31.3589 52.5994 31.2833 52.8226 31.2833H54.6068C54.6811 31.2833 54.7431 31.311 54.7926 31.3668C54.8422 31.4147 54.8669 31.4705 54.8669 31.5341C54.8669 31.5899 54.8547 31.6378 54.8299 31.6775L51.856 35.2873L55.0528 39.2558C55.086 39.2876 55.1023 39.3355 55.1023 39.3992C55.1023 39.4629 55.0775 39.5227 55.028 39.5785C54.9785 39.6261 54.9165 39.6501 54.8422 39.6501H52.9962C52.7978 39.6501 52.6326 39.5703 52.5004 39.4112L50.0471 36.4588V39.3513C50.0471 39.4389 50.0182 39.5107 49.9605 39.5665C49.9026 39.6223 49.8283 39.6501 49.7374 39.6501H48.1763Z" fill="black"/>
<path d="M56.3921 39.6501C56.3094 39.6501 56.2351 39.6223 56.169 39.5665C56.1113 39.5029 56.0822 39.431 56.0822 39.3513V31.582C56.0822 31.4944 56.1113 31.4226 56.169 31.3668C56.2351 31.311 56.3094 31.2833 56.3921 31.2833H62.1782C62.2691 31.2833 62.3434 31.311 62.4014 31.3668C62.459 31.4226 62.4879 31.4944 62.4879 31.582V32.7056C62.4879 32.7853 62.459 32.8569 62.4014 32.9208C62.3434 32.9766 62.2691 33.0044 62.1782 33.0044H58.2259V34.618H61.9056C61.9965 34.618 62.0707 34.6498 62.1287 34.7137C62.1864 34.7695 62.2155 34.8411 62.2155 34.9287V35.9687C62.2155 36.0484 62.1864 36.12 62.1287 36.1839C62.0707 36.2397 61.9965 36.2675 61.9056 36.2675H58.2259V37.929H62.2773C62.3682 37.929 62.4424 37.9567 62.5004 38.0125C62.5581 38.0683 62.5872 38.1401 62.5872 38.2278V39.3513C62.5872 39.431 62.5581 39.5029 62.5004 39.5665C62.4424 39.6223 62.3682 39.6501 62.2773 39.6501H56.3921Z" fill="black"/>
<path d="M64.3053 39.6501C64.2226 39.6501 64.1483 39.6223 64.0822 39.5665C64.0245 39.5029 63.9957 39.431 63.9957 39.3513V31.582C63.9957 31.4944 64.0245 31.4226 64.0822 31.3668C64.1483 31.311 64.2226 31.2833 64.3053 31.2833H67.6754C68.7576 31.2833 69.6 31.5222 70.203 32.0003C70.8141 32.4705 71.1197 33.1399 71.1197 34.0084C71.1197 34.5663 70.9837 35.0403 70.711 35.4307C70.4384 35.8212 70.0626 36.12 69.5834 36.3273L71.2808 39.2678C71.3056 39.3154 71.3181 39.3592 71.3181 39.3992C71.3181 39.4629 71.2892 39.5227 71.2313 39.5785C71.1818 39.6261 71.1241 39.6501 71.058 39.6501H69.4101C69.1703 39.6501 69.0011 39.5426 68.902 39.3273L67.4895 36.6977H66.2259V39.3513C66.2259 39.4389 66.1927 39.5107 66.1265 39.5665C66.0688 39.6223 65.9946 39.6501 65.9037 39.6501H64.3053ZM67.6506 35.0005C68.0305 35.0005 68.3197 34.9129 68.5178 34.7374C68.7162 34.5543 68.8152 34.3031 68.8152 33.9845C68.8152 33.6658 68.7162 33.4147 68.5178 33.2316C68.3279 33.0403 68.0389 32.9445 67.6506 32.9445H66.2259V35.0005H67.6506Z" fill="black"/>
<path d="M75.7959 39.7698C75.0112 39.7698 74.338 39.6582 73.7763 39.4351C73.2147 39.212 72.7894 38.9211 72.5001 38.5624C72.2193 38.1959 72.0708 37.7976 72.0542 37.3671C72.0542 37.3034 72.0789 37.2476 72.1284 37.1997C72.1864 37.1439 72.2525 37.1162 72.3268 37.1162H73.8879C73.9869 37.1162 74.0656 37.1361 74.1233 37.1761C74.1894 37.2079 74.2555 37.2596 74.3216 37.3314C74.4288 37.5385 74.6024 37.7099 74.8419 37.8452C75.0814 37.9807 75.3995 38.0484 75.7959 38.0484C76.2669 38.0484 76.6261 37.9769 76.874 37.8332C77.1216 37.6898 77.2457 37.4947 77.2457 37.2476C77.2457 37.0724 77.1796 36.929 77.0473 36.8174C76.9235 36.7058 76.7252 36.6063 76.4528 36.5186C76.1801 36.4307 75.7752 36.3312 75.2384 36.2196C74.2471 36.0204 73.5037 35.7295 73.0082 35.3472C72.5208 34.9567 72.2773 34.403 72.2773 33.6857C72.2773 33.1997 72.4177 32.7654 72.6985 32.3829C72.9793 32.0003 73.3799 31.7015 73.9004 31.4863C74.4207 31.2713 75.0278 31.1635 75.7216 31.1635C76.4403 31.1635 77.0639 31.2833 77.5927 31.5222C78.1211 31.7614 78.5219 32.0642 78.7943 32.4307C79.0754 32.7891 79.2239 33.1439 79.2405 33.4944C79.2405 33.5663 79.2158 33.6258 79.166 33.6737C79.1165 33.7216 79.0547 33.7456 78.9801 33.7456H77.3448C77.2457 33.7456 77.163 33.7295 77.0969 33.6977C77.0392 33.6658 76.9853 33.6139 76.9358 33.5423C76.8863 33.3589 76.7499 33.2035 76.5271 33.0762C76.3121 32.9486 76.0438 32.8849 75.7216 32.8849C75.3499 32.8849 75.065 32.9486 74.8667 33.0762C74.6686 33.2035 74.5692 33.3907 74.5692 33.6378C74.5692 33.8052 74.6231 33.9448 74.7303 34.0563C74.846 34.1679 75.0278 34.2713 75.2756 34.3671C75.5317 34.4547 75.8952 34.5464 76.366 34.6419C77.1341 34.7774 77.7453 34.9486 78.1997 35.1559C78.6623 35.3551 79.0008 35.618 79.2158 35.9448C79.4305 36.2634 79.5377 36.6658 79.5377 37.1521C79.5377 37.686 79.3769 38.1521 79.0547 38.5505C78.7407 38.941 78.2988 39.2438 77.729 39.459C77.1671 39.6661 76.523 39.7698 75.7959 39.7698Z" fill="black"/>
<path d="M81.0876 39.6501C81.0052 39.6501 80.9306 39.6223 80.8645 39.5665C80.8068 39.5029 80.778 39.431 80.778 39.3513V31.582C80.778 31.4944 80.8068 31.4226 80.8645 31.3668C80.9306 31.311 81.0052 31.2833 81.0876 31.2833H84.557C85.6142 31.2833 86.4444 31.5184 87.0473 31.9883C87.6585 32.4585 87.9641 33.1439 87.9641 34.0444C87.9641 34.9369 87.6626 35.6101 87.0596 36.0642C86.4566 36.5105 85.6223 36.7336 84.557 36.7336H83.0825V39.3513C83.0825 39.4389 83.0495 39.5107 82.9834 39.5665C82.9254 39.6223 82.8512 39.6501 82.7603 39.6501H81.0876ZM84.495 35.0841C84.8585 35.0841 85.1434 34.9965 85.3499 34.8212C85.5565 34.6378 85.6596 34.3709 85.6596 34.0204C85.6596 33.6936 85.5605 33.4346 85.3622 33.2435C85.1722 33.0444 84.8833 32.9445 84.495 32.9445H83.0452V35.0841H84.495Z" fill="black"/>
<path d="M88.0623 39.6501C87.9965 39.6501 87.9344 39.6261 87.8765 39.5785C87.8269 39.5227 87.8022 39.4629 87.8022 39.3992C87.8022 39.3513 87.8063 39.3154 87.8147 39.2917L90.7263 31.618C90.751 31.5222 90.8049 31.4424 90.8874 31.3788C90.9701 31.3151 91.0773 31.2833 91.2095 31.2833H93.0433C93.1755 31.2833 93.2827 31.3151 93.3655 31.3788C93.4479 31.4424 93.5018 31.5222 93.5265 31.618L96.4259 39.2917L96.4506 39.3992C96.4506 39.4629 96.4218 39.5227 96.3638 39.5785C96.3143 39.6261 96.2523 39.6501 96.178 39.6501H94.6539C94.4558 39.6501 94.3235 39.5665 94.2574 39.3992L93.7744 38.1799H90.4661L89.9954 39.3992C89.9293 39.5665 89.7929 39.6501 89.5864 39.6501H88.0623ZM93.2787 36.4588L92.1265 33.3031L90.9742 36.4588H93.2787Z" fill="black"/>
<path d="M100.802 39.7698C99.6204 39.7698 98.6953 39.4947 98.0261 38.945C97.3655 38.3872 97.0144 37.5823 96.9731 36.5303C96.9649 36.3154 96.9608 35.9646 96.9608 35.4786C96.9608 34.9845 96.9649 34.6258 96.9731 34.403C97.0144 33.3671 97.3736 32.5701 98.0509 32.0122C98.7284 31.4465 99.6452 31.1635 100.802 31.1635C101.528 31.1635 102.181 31.2833 102.759 31.5222C103.337 31.7532 103.792 32.0879 104.122 32.5263C104.461 32.9565 104.634 33.4626 104.642 34.0444V34.0683C104.642 34.132 104.614 34.1878 104.556 34.2356C104.506 34.2754 104.448 34.2952 104.382 34.2952H102.71C102.602 34.2952 102.52 34.2754 102.462 34.2356C102.404 34.1878 102.355 34.1039 102.313 33.9845C102.198 33.5782 102.016 33.2952 101.768 33.1358C101.52 32.9684 101.194 32.8849 100.789 32.8849C99.8144 32.8849 99.3108 33.4109 99.2776 34.4626C99.2694 34.6778 99.2653 35.0084 99.2653 35.4547C99.2653 35.901 99.2694 36.2397 99.2776 36.4707C99.3108 37.5224 99.8144 38.0484 100.789 38.0484C101.194 38.0484 101.524 37.9649 101.78 37.7976C102.036 37.622 102.214 37.3393 102.313 36.9488C102.346 36.8294 102.392 36.7497 102.45 36.7097C102.507 36.662 102.594 36.6381 102.71 36.6381H104.382C104.457 36.6381 104.519 36.662 104.568 36.7097C104.626 36.7576 104.651 36.8174 104.642 36.889C104.634 37.4707 104.461 37.9807 104.122 38.419C103.792 38.8493 103.337 39.1839 102.759 39.4231C102.181 39.6541 101.528 39.7698 100.802 39.7698Z" fill="black"/>
<path d="M106.255 39.6501C106.173 39.6501 106.098 39.6223 106.032 39.5665C105.974 39.5029 105.945 39.431 105.945 39.3513V31.582C105.945 31.4944 105.974 31.4226 106.032 31.3668C106.098 31.311 106.173 31.2833 106.255 31.2833H112.041C112.132 31.2833 112.207 31.311 112.264 31.3668C112.322 31.4226 112.351 31.4944 112.351 31.582V32.7056C112.351 32.7853 112.322 32.8569 112.264 32.9208C112.207 32.9766 112.132 33.0044 112.041 33.0044H108.089V34.618H111.769C111.86 34.618 111.934 34.6498 111.992 34.7137C112.05 34.7695 112.079 34.8411 112.079 34.9287V35.9687C112.079 36.0484 112.05 36.12 111.992 36.1839C111.934 36.2397 111.86 36.2675 111.769 36.2675H108.089V37.929H112.14C112.231 37.929 112.306 37.9567 112.364 38.0125C112.421 38.0683 112.45 38.1401 112.45 38.2278V39.3513C112.45 39.431 112.421 39.5029 112.364 39.5665C112.306 39.6223 112.231 39.6501 112.14 39.6501H106.255Z" fill="black"/>
</g>
<defs>
<clipPath id="clip0">
<rect width="112.653" height="40" fill="white"/>
</clipPath>
</defs>
</svg>
